PathFileType	4	(X/Y/Z)	TVC_58_BWA_04_walk_RCNL2025.trc
DataRate	CameraRate	NumFrames	NumMarkers	Units	OrigDataRate	OrigDataStartFrame	OrigNumFrames
100	100	7	27	mm	100	219	437
Frame#	Time	R_Shoulder			L_Shoulder			C7			J_Notch			R_Elbow			L_Elbow			R_Wrist			L_Wrist			R_Asis			L_Asis			R_Psis			L_Psis			Sacral			Thoracic			Sternum			R_Thigh_Lateral			R_Knee_Lateral			R_Shank_Lateral			R_Ankle_Lateral			R_Heel			R_Toe			L_Thigh_Lateral			L_Knee_Lateral			L_Shank_Lateral			L_Ankle_Lateral			L_Heel			L_Toe		
		X1	Y1	Z1	X2	Y2	Z2	X3	Y3	Z3	X4	Y4	Z4	X5	Y5	Z5	X6	Y6	Z6	X7	Y7	Z7	X8	Y8	Z8	X9	Y9	Z9	X10	Y10	Z10	X11	Y11	Z11	X12	Y12	Z12	X13	Y13	Z13	X14	Y14	Z14	X15	Y15	Z15	X16	Y16	Z16	X17	Y17	Z17	X18	Y18	Z18	X19	Y19	Z19	X20	Y20	Z20	X21	Y21	Z21	X22	Y22	Z22	X23	Y23	Z23	X24	Y24	Z24	X25	Y25	Z25	X26	Y26	Z26	X27	Y27	Z27
219	2.18000000	232.696777	1327.985107	33.967838	242.396118	1344.920898	-322.704712	177.158051	1402.757568	-152.095184	325.703827	1312.963989	-143.385849	192.964584	1007.433350	91.489983	196.231201	1024.425537	-386.613922	275.623459	775.790497	143.854553	260.745415	792.240173	-453.001129	382.274261	915.608643	-3.851342	361.812714	892.271057	-307.872772	146.221664	935.814453	-84.416008	138.279404	927.144958	-197.991257	142.250534	931.479706	-141.203632	144.947464	1093.647217	-153.890030	440.676331	1086.187134	-158.155182	377.887543	696.441162	80.781509	421.347076	471.276825	-18.929106	406.869110	263.836426	15.988117	367.047791	67.533005	-78.351311	308.959778	58.260971	-126.584961	490.360962	47.176590	-124.771606	251.378036	645.125916	-374.605438	262.412811	437.976440	-274.925232	113.348785	299.096222	-309.552826	-39.649555	140.971359	-202.508148	-69.326927	173.776810	-151.682480	49.182503	40.177414	-153.303864
220	2.19000000	241.321152	1328.813232	34.213760	250.514114	1346.261841	-322.348480	185.356445	1403.615479	-151.646973	333.939514	1313.850098	-143.235840	203.299896	1007.902222	91.725716	203.738556	1026.560303	-387.534271	290.236267	777.161316	142.290977	265.010704	793.815918	-454.813721	390.412048	916.078735	-4.093096	369.546661	893.343628	-307.768738	154.392166	937.040039	-83.836716	146.205963	927.545593	-197.682709	150.299065	932.292816	-140.759712	153.018936	1094.528564	-153.534286	448.532867	1086.940918	-158.482117	382.891968	696.583740	81.060638	423.750732	470.518219	-17.955767	407.573975	263.614655	16.715584	367.205048	67.441063	-78.419212	309.011017	58.478752	-126.609177	490.403473	47.019035	-125.169434	261.576599	645.442322	-375.234985	279.265137	437.450531	-277.965149	126.514908	302.155487	-312.728912	-29.276451	148.188217	-205.163376	-57.358418	182.511154	-154.360016	52.834263	41.215248	-154.794540
221	2.20000000	250.095688	1329.525513	34.434578	258.534180	1347.410522	-322.030609	193.592331	1404.418091	-151.204498	342.179321	1314.581055	-143.162369	213.748779	1008.309265	92.097641	211.014023	1028.443481	-388.431854	304.932495	778.554199	140.733688	269.532211	795.307587	-456.570389	398.431549	916.302368	-4.445879	377.008331	894.142639	-307.801025	162.394974	938.103821	-83.305214	153.912460	927.770386	-197.340103	158.153717	932.937103	-140.322659	160.972168	1095.389282	-153.119171	456.326050	1087.381470	-158.933792	387.603760	696.665955	81.389351	426.344208	469.838928	-17.173361	408.547394	263.372894	17.404461	367.415588	67.342361	-78.474571	309.060974	58.732391	-126.594566	490.469055	46.873501	-125.554329	271.996216	645.539917	-375.963654	296.525177	436.973755	-280.866547	141.217133	304.274200	-315.796814	-18.029896	155.534286	-207.804779	-44.652657	191.149338	-157.004684	57.543274	42.987057	-156.955612
222	2.21000000	259.008270	1330.111450	34.626083	266.456970	1348.357422	-321.757782	201.862457	1405.161865	-150.771973	350.418213	1315.152222	-143.167358	224.322845	1008.644531	92.603394	218.034119	1030.052002	-389.283752	319.684143	779.953339	139.188606	274.320053	796.689270	-458.249710	406.329407	916.299316	-4.913813	384.205780	894.654907	-307.978088	170.219406	938.996338	-82.851486	161.401901	927.826294	-196.979034	165.810654	933.411316	-139.915260	168.805191	1096.225464	-152.660843	464.057251	1087.509155	-159.509415	392.119446	696.685181	81.747322	429.171600	469.234894	-16.591162	409.860809	263.075531	18.008448	367.671631	67.241104	-78.516319	309.105560	59.017738	-126.540993	490.548706	46.745525	-125.911324	282.688293	645.460632	-376.780945	314.130035	436.609802	-283.587219	157.487152	305.339386	-318.644836	-5.928627	162.931091	-210.367294	-31.255707	199.549316	-159.511093	63.596752	45.541412	-159.924408
223	2.22000000	268.042999	1330.568848	34.782894	274.284485	1349.102661	-321.536652	210.162689	1405.847168	-150.354889	358.650726	1315.566162	-143.252548	235.033218	1008.906189	93.234779	224.781860	1031.375122	-390.066681	334.462799	781.347382	137.660419	279.378220	797.943787	-459.830612	414.101318	916.099976	-5.490662	391.152649	894.889221	-308.306732	177.855118	939.719971	-82.502190	168.682816	927.731384	-196.613525	173.268967	933.725677	-139.557858	176.518524	1097.035767	-152.175476	471.725250	1087.338989	-160.206802	396.556824	696.643616	82.103806	432.237946	468.694397	-16.202890	411.560394	262.697662	18.474516	367.960938	67.141632	-78.545380	309.141571	59.326626	-126.452827	490.632385	46.637581	-126.231613	293.683929	645.264404	-377.673370	332.021423	436.425995	-286.098541	175.206223	305.452545	-321.170105	7.014895	170.272629	-212.795944	-17.199701	207.548340	-161.782547	71.279083	48.860806	-163.794342
224	2.23000000	277.181030	1330.904053	34.898708	282.019470	1349.655640	-321.373291	218.487946	1406.477539	-149.959778	366.871124	1315.831543	-143.419373	245.889587	1009.099976	93.977760	231.247269	1032.414551	-390.757599	349.240051	782.729401	136.152420	284.704826	799.062683	-461.292480	421.742157	915.743164	-6.159764	397.867218	894.875977	-308.791931	185.293427	940.288574	-82.278854	175.768738	927.513245	-196.255829	180.531082	933.900909	-139.267342	184.115112	1097.821533	-151.678574	479.326599	1086.899414	-161.022934	401.043121	696.548035	82.420013	435.518707	468.201141	-15.994249	413.649506	262.224915	18.756010	368.269226	67.047997	-78.564484	309.168671	59.648197	-126.338135	490.710419	46.549465	-126.512138	304.989532	645.021118	-378.624969	350.144470	436.489380	-288.384064	194.101425	304.913757	-323.299622	20.797560	177.424713	-215.054565	-2.503289	214.969757	-163.749207	80.843437	52.861042	-168.592178
225	2.24000000	286.401398	1331.130493	34.966618	289.664856	1350.033447	-321.273163	226.832336	1407.059082	-149.593872	375.073486	1315.963135	-143.668991	256.899261	1009.238525	94.812820	237.427734	1033.183838	-391.334290	363.987808	784.096497	134.666538	290.292633	800.045959	-462.615494	429.246368	915.273560	-6.895180	404.371460	894.664795	-309.436676	192.529068	940.724792	-82.196320	182.677475	927.206482	-195.916443	187.603271	933.965637	-139.056381	191.600235	1098.585693	-151.184418	486.855988	1086.230469	-161.954300	405.700439	696.407715	82.651955	438.970306	467.737122	-15.949297	416.078400	261.658447	18.828592	368.582336	66.963554	-78.577835	309.190155	59.970242	-126.207428	490.774750	46.478840	-126.754181	316.585938	644.801575	-379.617584	368.446075	436.862854	-290.437164	213.780670	304.145660	-325.015503	35.425495	184.228256	-217.132294	12.825263	221.633484	-165.383575	92.483681	57.398373	-174.260773
